<mxfile host="65bd71144e">
    <diagram id="YKh7LrF5BTuSwjBW5BxR" name="Page-1">
        <mxGraphModel dx="848" dy="286" grid="1" gridSize="10" guides="1" tooltips="1" connect="1" arrows="1" fold="1" page="1" pageScale="1" pageWidth="827" pageHeight="1169" math="1" shadow="0">
            <root>
                <mxCell id="0"/>
                <mxCell id="1" parent="0"/>
                <mxCell id="10" style="edgeStyle=none;html=1;entryX=0.5;entryY=0;entryDx=0;entryDy=0;fontSize=18;" parent="1" source="uHtXdqYaOmYZvteWbgWJ-4" target="28" edge="1">
                    <mxGeometry relative="1" as="geometry">
                        <mxPoint x="365" y="80" as="targetPoint"/>
                        <Array as="points">
                            <mxPoint x="350" y="60"/>
                        </Array>
                    </mxGeometry>
                </mxCell>
                <mxCell id="uHtXdqYaOmYZvteWbgWJ-4" value="&lt;font face=&quot;Times New Roman&quot; style=&quot;font-size: 14px&quot;&gt;I&lt;/font&gt;" style="rounded=1;whiteSpace=wrap;html=1;arcSize=50;" parent="1" vertex="1">
                    <mxGeometry x="220" y="40" width="60" height="40" as="geometry"/>
                </mxCell>
                <mxCell id="uHtXdqYaOmYZvteWbgWJ-5" value="&lt;font face=&quot;Times New Roman&quot; style=&quot;font-size: 18px&quot;&gt;O&lt;/font&gt;" style="rounded=1;whiteSpace=wrap;html=1;arcSize=50;" parent="1" vertex="1">
                    <mxGeometry x="580" y="160" width="60" height="40" as="geometry"/>
                </mxCell>
                <mxCell id="dlhDrgj7KIVcupZ_G-h5-3" value="" style="edgeStyle=orthogonalEdgeStyle;rounded=0;orthogonalLoop=1;jettySize=auto;html=1;" parent="1" target="dlhDrgj7KIVcupZ_G-h5-2" edge="1">
                    <mxGeometry relative="1" as="geometry">
                        <mxPoint x="400" y="180" as="sourcePoint"/>
                    </mxGeometry>
                </mxCell>
                <mxCell id="dlhDrgj7KIVcupZ_G-h5-4" value="" style="edgeStyle=orthogonalEdgeStyle;rounded=0;orthogonalLoop=1;jettySize=auto;html=1;entryX=0;entryY=0.5;entryDx=0;entryDy=0;startArrow=none;" parent="1" source="38" target="uHtXdqYaOmYZvteWbgWJ-5" edge="1">
                    <mxGeometry relative="1" as="geometry">
                        <mxPoint x="530" y="180" as="targetPoint"/>
                    </mxGeometry>
                </mxCell>
                <mxCell id="dlhDrgj7KIVcupZ_G-h5-2" value="$$\frac{1}{s}$$" style="whiteSpace=wrap;html=1;aspect=fixed;" parent="1" vertex="1">
                    <mxGeometry x="440" y="160" width="40" height="40" as="geometry"/>
                </mxCell>
                <mxCell id="2" value="&lt;span style=&quot;font-family: &amp;#34;times new roman&amp;#34;&quot;&gt;$$\sigma$$&lt;/span&gt;" style="text;html=1;align=center;verticalAlign=middle;resizable=0;points=[];autosize=1;strokeColor=none;fillColor=none;fontSize=18;" parent="1" vertex="1">
                    <mxGeometry x="255" y="50" width="100" height="30" as="geometry"/>
                </mxCell>
                <mxCell id="3" value="&lt;span style=&quot;font-family: &amp;#34;times new roman&amp;#34;&quot;&gt;$$\vec{r}$$&lt;/span&gt;" style="text;html=1;align=center;verticalAlign=middle;resizable=0;points=[];autosize=1;strokeColor=none;fillColor=none;fontSize=18;" parent="1" vertex="1">
                    <mxGeometry x="440" y="140" width="100" height="30" as="geometry"/>
                </mxCell>
                <mxCell id="4" value="&lt;span style=&quot;font-family: &amp;#34;times new roman&amp;#34;&quot;&gt;$$\vec{v}$$&lt;/span&gt;" style="text;html=1;align=center;verticalAlign=middle;resizable=0;points=[];autosize=1;strokeColor=none;fillColor=none;fontSize=18;" parent="1" vertex="1">
                    <mxGeometry x="355" y="150" width="110" height="30" as="geometry"/>
                </mxCell>
                <mxCell id="5" value="$$\frac{1}{s}$$" style="whiteSpace=wrap;html=1;aspect=fixed;" parent="1" vertex="1">
                    <mxGeometry x="360" y="160" width="40" height="40" as="geometry"/>
                </mxCell>
                <mxCell id="12" style="edgeStyle=none;html=1;entryX=0;entryY=0.5;entryDx=0;entryDy=0;fontSize=18;exitX=1;exitY=0.5;exitDx=0;exitDy=0;" parent="1" source="30" target="5" edge="1">
                    <mxGeometry relative="1" as="geometry">
                        <mxPoint x="320" y="180" as="sourcePoint"/>
                    </mxGeometry>
                </mxCell>
                <mxCell id="15" value="&lt;span style=&quot;font-family: &amp;#34;times new roman&amp;#34;&quot;&gt;$$\vec{D}$$&lt;/span&gt;" style="text;html=1;align=center;verticalAlign=middle;resizable=0;points=[];autosize=1;strokeColor=none;fillColor=none;fontSize=18;" parent="1" vertex="1">
                    <mxGeometry x="220" y="210" width="110" height="30" as="geometry"/>
                </mxCell>
                <mxCell id="16" value="&lt;span style=&quot;font-family: &amp;#34;times new roman&amp;#34;&quot;&gt;$$\vec{L}$$&lt;/span&gt;" style="text;html=1;align=center;verticalAlign=middle;resizable=0;points=[];autosize=1;strokeColor=none;fillColor=none;fontSize=18;" parent="1" vertex="1">
                    <mxGeometry x="220" y="90" width="110" height="30" as="geometry"/>
                </mxCell>
                <mxCell id="26" style="edgeStyle=none;html=1;entryX=0;entryY=0.25;entryDx=0;entryDy=0;fontSize=18;exitX=0;exitY=0.5;exitDx=0;exitDy=0;" parent="1" source="28" target="30" edge="1">
                    <mxGeometry relative="1" as="geometry">
                        <mxPoint x="330" y="110.80000000000001" as="sourcePoint"/>
                        <mxPoint x="280" y="180" as="targetPoint"/>
                        <Array as="points">
                            <mxPoint x="200" y="120"/>
                            <mxPoint x="200" y="170"/>
                        </Array>
                    </mxGeometry>
                </mxCell>
                <mxCell id="22" style="edgeStyle=none;html=1;fontSize=18;entryX=1;entryY=0.25;entryDx=0;entryDy=0;" parent="1" target="29" edge="1">
                    <mxGeometry relative="1" as="geometry">
                        <mxPoint x="360" y="240" as="targetPoint"/>
                        <mxPoint x="420" y="180" as="sourcePoint"/>
                        <Array as="points">
                            <mxPoint x="420" y="230"/>
                        </Array>
                    </mxGeometry>
                </mxCell>
                <mxCell id="24" style="edgeStyle=none;html=1;entryX=0;entryY=0.75;entryDx=0;entryDy=0;fontSize=18;exitX=0;exitY=0.5;exitDx=0;exitDy=0;" parent="1" source="29" target="30" edge="1">
                    <mxGeometry relative="1" as="geometry">
                        <mxPoint x="320" y="240" as="sourcePoint"/>
                        <mxPoint x="280" y="180" as="targetPoint"/>
                        <Array as="points">
                            <mxPoint x="200" y="240"/>
                            <mxPoint x="200" y="190"/>
                        </Array>
                    </mxGeometry>
                </mxCell>
                <mxCell id="25" style="edgeStyle=none;html=1;fontSize=18;entryX=1;entryY=0.5;entryDx=0;entryDy=0;" parent="1" target="28" edge="1">
                    <mxGeometry relative="1" as="geometry">
                        <mxPoint x="400" y="115" as="targetPoint"/>
                        <mxPoint x="420" y="180" as="sourcePoint"/>
                        <Array as="points">
                            <mxPoint x="420" y="120"/>
                        </Array>
                    </mxGeometry>
                </mxCell>
                <mxCell id="27" value="&lt;span style=&quot;font-family: &amp;#34;times new roman&amp;#34;&quot;&gt;$$\ddot{\vec{r}}$$&lt;/span&gt;" style="text;html=1;align=center;verticalAlign=middle;resizable=0;points=[];autosize=1;strokeColor=none;fillColor=none;fontSize=18;" parent="1" vertex="1">
                    <mxGeometry x="260" y="150" width="160" height="30" as="geometry"/>
                </mxCell>
                <mxCell id="28" value="$$f_L(\vec{r},\vec{v},\sigma)$$" style="rounded=1;whiteSpace=wrap;html=1;fontSize=18;" parent="1" vertex="1">
                    <mxGeometry x="300" y="100" width="100" height="40" as="geometry"/>
                </mxCell>
                <mxCell id="29" value="$$f_D(h,\vec{v})$$" style="rounded=1;whiteSpace=wrap;html=1;fontSize=18;" parent="1" vertex="1">
                    <mxGeometry x="300" y="220" width="100" height="40" as="geometry"/>
                </mxCell>
                <mxCell id="30" value="&lt;span&gt;$$f_A(\vec{r},\vec{L},\vec{D})$$&lt;/span&gt;" style="rounded=1;whiteSpace=wrap;html=1;fontSize=18;" parent="1" vertex="1">
                    <mxGeometry x="220" y="160" width="100" height="40" as="geometry"/>
                </mxCell>
                <mxCell id="31" style="edgeStyle=none;html=1;fontSize=18;entryX=0;entryY=0.5;entryDx=0;entryDy=0;" parent="1" target="30" edge="1">
                    <mxGeometry relative="1" as="geometry">
                        <mxPoint x="200" y="250" as="targetPoint"/>
                        <mxPoint x="560" y="180" as="sourcePoint"/>
                        <Array as="points">
                            <mxPoint x="560" y="280"/>
                            <mxPoint x="190" y="280"/>
                            <mxPoint x="190" y="180"/>
                        </Array>
                    </mxGeometry>
                </mxCell>
                <mxCell id="33" style="edgeStyle=none;html=1;fontSize=18;entryX=1;entryY=0.5;entryDx=0;entryDy=0;" parent="1" target="41" edge="1">
                    <mxGeometry relative="1" as="geometry">
                        <mxPoint x="420" y="260" as="targetPoint"/>
                        <mxPoint x="530" y="180" as="sourcePoint"/>
                        <Array as="points">
                            <mxPoint x="530" y="240"/>
                        </Array>
                    </mxGeometry>
                </mxCell>
                <mxCell id="34" style="edgeStyle=none;html=1;fontSize=18;entryX=1;entryY=0.25;entryDx=0;entryDy=0;" parent="1" target="28" edge="1">
                    <mxGeometry relative="1" as="geometry">
                        <mxPoint x="410" y="250" as="targetPoint"/>
                        <mxPoint x="500" y="180" as="sourcePoint"/>
                        <Array as="points">
                            <mxPoint x="500" y="110"/>
                        </Array>
                    </mxGeometry>
                </mxCell>
                <mxCell id="37" value="" style="shape=waypoint;sketch=0;fillStyle=solid;size=6;pointerEvents=1;points=[];fillColor=none;resizable=0;rotatable=0;perimeter=centerPerimeter;snapToPoint=1;strokeWidth=2;" parent="1" vertex="1">
                    <mxGeometry x="480" y="160" width="40" height="40" as="geometry"/>
                </mxCell>
                <mxCell id="38" value="" style="shape=waypoint;sketch=0;fillStyle=solid;size=6;pointerEvents=1;points=[];fillColor=none;resizable=0;rotatable=0;perimeter=centerPerimeter;snapToPoint=1;strokeWidth=2;" parent="1" vertex="1">
                    <mxGeometry x="540" y="160" width="40" height="40" as="geometry"/>
                </mxCell>
                <mxCell id="39" value="" style="edgeStyle=orthogonalEdgeStyle;rounded=0;orthogonalLoop=1;jettySize=auto;html=1;entryDx=0;entryDy=0;endArrow=none;" parent="1" source="dlhDrgj7KIVcupZ_G-h5-2" target="38" edge="1">
                    <mxGeometry relative="1" as="geometry">
                        <mxPoint x="539.9999999999999" y="180" as="targetPoint"/>
                        <mxPoint x="480" y="180" as="sourcePoint"/>
                    </mxGeometry>
                </mxCell>
                <mxCell id="40" value="" style="shape=waypoint;sketch=0;fillStyle=solid;size=6;pointerEvents=1;points=[];fillColor=none;resizable=0;rotatable=0;perimeter=centerPerimeter;snapToPoint=1;strokeWidth=2;" parent="1" vertex="1">
                    <mxGeometry x="400" y="160" width="40" height="40" as="geometry"/>
                </mxCell>
                <mxCell id="44" style="edgeStyle=none;html=1;entryX=1;entryY=0.5;entryDx=0;entryDy=0;" edge="1" parent="1" source="41" target="29">
                    <mxGeometry relative="1" as="geometry"/>
                </mxCell>
                <mxCell id="41" value="$$f_h(\vec{r})$$" style="rounded=1;whiteSpace=wrap;html=1;fontSize=18;" vertex="1" parent="1">
                    <mxGeometry x="440" y="220" width="60" height="40" as="geometry"/>
                </mxCell>
                <mxCell id="43" value="" style="shape=waypoint;sketch=0;fillStyle=solid;size=6;pointerEvents=1;points=[];fillColor=none;resizable=0;rotatable=0;perimeter=centerPerimeter;snapToPoint=1;strokeWidth=2;" vertex="1" parent="1">
                    <mxGeometry x="510" y="160" width="40" height="40" as="geometry"/>
                </mxCell>
                <mxCell id="45" value="&lt;span style=&quot;font-family: &amp;#34;times new roman&amp;#34;&quot;&gt;$$h$$&lt;/span&gt;" style="text;html=1;align=center;verticalAlign=middle;resizable=0;points=[];autosize=1;strokeColor=none;fillColor=none;fontSize=18;" vertex="1" parent="1">
                    <mxGeometry x="400" y="240" width="60" height="30" as="geometry"/>
                </mxCell>
            </root>
        </mxGraphModel>
    </diagram>
</mxfile>